<?xml version="1.0" standalone="no"?>
<!DOCTYPE svg PUBLIC "-//W3C//DTD SVG 20010904//EN"
 "http://www.w3.org/TR/2001/REC-SVG-20010904/DTD/svg10.dtd">
<svg version="1.0" xmlns="http://www.w3.org/2000/svg"
 width="700.000000pt" height="700.000000pt" viewBox="0 0 700.000000 700.000000"
 preserveAspectRatio="xMidYMid meet">
<metadata>
Created by potrace 1.14, written by Peter Selinger 2001-2017
</metadata>
<g transform="translate(0.000000,700.000000) scale(0.100000,-0.100000)"
fill="#000000" stroke="none">
<path d="M5007 6694 c-1 -1 -38 -4 -82 -8 -133 -10 -199 -24 -346 -72 -55 -18
-88 -23 -120 -19 -65 8 -127 15 -189 20 -70 6 -400 6 -465 0 -27 -2 -81 -7
-120 -10 -65 -5 -198 -21 -255 -30 -14 -3 -43 -7 -65 -10 -22 -4 -47 -8 -55
-10 -8 -2 -28 -7 -45 -9 -50 -9 -195 -43 -280 -66 -471 -127 -939 -361 -1280
-638 -433 -353 -698 -669 -901 -1072 -111 -221 -214 -522 -251 -735 -2 -11 -8
-42 -13 -70 -5 -27 -12 -72 -15 -100 -4 -27 -8 -61 -11 -75 -17 -105 -22 -390
-10 -555 20 -272 86 -579 179 -835 104 -285 277 -603 460 -844 60 -79 73 -95
167 -201 109 -123 309 -306 455 -416 180 -136 441 -289 640 -374 22 -9 49 -21
60 -26 148 -66 481 -162 655 -189 41 -6 85 -13 98 -15 13 -2 53 -7 90 -10 37
-4 78 -8 92 -11 29 -5 390 -5 435 0 17 2 62 6 100 10 325 33 669 130 954 270
385 189 692 430 958 753 79 97 136 178 248 353 111 173 265 544 319 770 27
113 56 260 62 318 3 30 8 64 10 75 22 115 22 548 0 677 -3 14 -7 48 -11 75
-55 458 -264 990 -542 1380 -24 33 -51 71 -60 85 -28 38 -163 201 -206 246
-31 34 -55 47 -130 72 -51 17 -114 34 -142 37 -27 4 -52 9 -55 10 -3 2 -12 0
-19 -4 -9 -6 -6 -14 14 -30 l27 -21 -25 -32 c-15 -18 -53 -62 -85 -97 l-58
-63 -49 42 -49 42 -9 -23 c-5 -13 -7 -65 -4 -116 4 -83 7 -95 34 -130 293
-374 489 -888 529 -1388 7 -96 8 -340 0 -401 -3 -27 -8 -74 -12 -104 -3 -30
-12 -89 -21 -130 -8 -41 -16 -82 -18 -90 -16 -82 -65 -227 -114 -335 -192
-429 -564 -788 -1005 -970 -126 -52 -281 -100 -361 -112 -16 -2 -37 -6 -45 -9
-67 -24 -502 -40 -585 -21 -11 3 -45 8 -75 13 -30 4 -57 8 -60 9 -3 1 -32 7
-65 14 -184 40 -450 151 -615 258 -238 155 -410 321 -555 538 -185 276 -280
551 -313 900 -12 126 -5 342 13 450 3 17 10 57 16 90 56 324 226 703 424 941
290 349 710 578 1160 631 121 14 366 8 455 -12 14 -3 39 -8 55 -11 17 -2 45
-9 64 -14 19 -5 36 -8 37 -7 2 2 -3 21 -10 42 -13 38 -59 235 -70 300 -3 17
-9 48 -12 70 -15 84 -15 84 66 127 41 22 103 60 137 84 74 53 205 182 198 195
-4 5 -19 9 -36 9 -26 0 -29 3 -25 28 4 26 8 58 22 167 8 61 10 65 33 60 10 -2
42 -6 72 -10 30 -4 57 -9 61 -11 3 -2 4 -26 2 -52 l-5 -47 101 -59 c55 -32
103 -62 106 -67 8 -14 -128 -189 -218 -279 -44 -44 -118 -108 -163 -141 -69
-50 -82 -63 -78 -82 75 -317 161 -538 287 -746 164 -269 329 -439 514 -531 69
-34 199 -77 207 -68 1 2 -27 44 -62 93 -205 284 -319 565 -327 805 -4 126 11
206 56 297 118 240 406 320 738 206 174 -60 375 -176 574 -332 116 -92 100
-86 131 -40 50 76 77 165 82 275 3 56 3 122 -1 146 -6 43 -9 46 -63 68 -99 41
-191 125 -371 340 -166 198 -280 318 -357 375 -22 16 -42 33 -45 36 -13 18
-163 98 -225 122 -81 31 -194 55 -278 60 -32 1 -59 2 -60 1z m129 -239 c252
-58 437 -270 335 -382 -95 -104 -382 -48 -540 106 -27 26 -56 62 -65 79 -77
149 57 247 270 197z m-1140 -94 l41 -1 -4 -122 c-3 -68 -7 -125 -10 -128 -4
-4 -235 -1 -240 3 -1 1 -3 57 -6 124 -5 146 -31 131 219 124z m-482 -61 c3
-25 8 -82 12 -127 6 -82 6 -83 -17 -84 -13 0 -33 -2 -44 -4 -11 -3 -39 -7 -62
-10 -23 -3 -57 -7 -76 -10 l-35 -6 -22 121 c-12 67 -20 124 -17 127 4 3 20 7
37 9 16 2 42 6 58 9 15 2 54 8 87 11 33 4 62 8 64 10 7 6 9 1 15 -46z m-493
-175 c17 -65 29 -119 27 -120 -5 -5 -222 -75 -224 -72 -11 11 -85 221 -81 231
3 7 47 25 98 40 52 15 105 31 119 36 14 4 27 6 28 4 2 -1 17 -55 33 -119z
m-477 -180 l53 -110 -101 -53 c-56 -29 -105 -54 -110 -55 -9 -2 -13 4 -89 137
l-46 79 112 58 c62 32 115 57 119 56 5 -1 32 -51 62 -112z m-441 -257 c37 -53
67 -98 67 -101 0 -2 -21 -19 -47 -37 -27 -19 -50 -37 -53 -40 -3 -3 -24 -20
-47 -38 l-41 -32 -83 96 -82 97 24 21 c14 12 40 33 59 48 19 15 55 43 80 62
25 19 47 32 51 28 3 -4 36 -51 72 -104z m-341 -460 c-47 -50 -77 -84 -103
-116 -16 -20 -21 -22 -33 -10 -8 7 -28 24 -46 38 -17 14 -44 35 -58 48 -15 13
-37 30 -49 39 -13 8 -23 20 -23 27 0 13 36 55 118 139 l56 58 89 -89 90 -90
-41 -44z m3891 -142 c37 -43 67 -84 66 -90 0 -9 -80 -73 -178 -143 -15 -11
-24 -4 -76 59 -107 127 -101 116 -74 138 13 10 55 48 94 84 64 61 70 64 85 48
9 -9 46 -53 83 -96z m-4169 -187 c6 -5 4 -16 -5 -26 -9 -10 -37 -54 -64 -98
-27 -44 -49 -81 -51 -83 -1 -2 -35 16 -76 39 -40 23 -90 51 -110 62 -20 11
-36 23 -34 26 27 47 94 155 113 183 l26 38 96 -67 c53 -36 100 -70 105 -74z
m4433 -181 c75 -127 95 -171 81 -179 -28 -18 -210 -110 -213 -107 -9 12 -115
202 -115 207 0 8 192 130 205 130 6 1 24 -23 42 -51z m-4826 -174 c30 -15 78
-37 107 -50 30 -13 52 -27 50 -32 -1 -5 -21 -54 -43 -110 -22 -56 -45 -102
-52 -102 -12 0 -221 75 -229 82 -6 6 41 141 67 194 13 24 28 44 34 44 6 0 36
-12 66 -26z m5068 -361 c18 -60 35 -115 37 -124 4 -13 -13 -21 -78 -39 -46
-12 -96 -26 -112 -31 -43 -13 -56 -11 -56 9 0 10 -5 23 -12 30 -7 7 -9 12 -6
12 3 0 -7 37 -22 82 l-28 83 52 20 c28 12 74 31 101 42 87 36 86 37 124 -84z
m-5166 -148 c49 -13 91 -26 94 -29 3 -2 0 -20 -5 -38 -6 -18 -13 -49 -16 -68
-7 -40 -23 -112 -28 -120 -2 -3 -10 -4 -18 -4 -19 2 -89 13 -115 18 -11 3 -42
8 -68 12 -55 8 -54 -7 -17 167 l22 105 32 -10 c17 -5 71 -20 119 -33z m5268
-277 c3 -66 21 -222 25 -230 8 -13 -12 -16 -132 -23 l-121 -6 -13 116 c-7 64
-10 118 -8 120 4 4 203 41 236 44 6 1 13 -9 13 -21z m-5361 -222 c41 -2 83 -4
93 -5 15 -1 17 -14 17 -120 0 -86 -3 -120 -12 -123 -7 -2 -65 -5 -128 -7
l-116 -2 2 108 c3 177 -1 161 37 157 17 -2 66 -6 107 -8z m5335 -291 c22 -2
43 -4 46 -4 3 -1 5 -16 4 -33 -9 -127 -18 -214 -22 -221 -5 -8 -81 -3 -148 9
-26 4 -75 11 -97 13 -4 1 -5 18 -2 39 6 45 12 125 13 173 l1 36 83 -4 c45 -2
100 -6 122 -8z m-5204 -212 c2 -23 8 -57 22 -137 9 -49 16 -91 14 -92 -3 -3
-226 -54 -236 -54 -4 0 -15 39 -24 88 -29 155 -30 172 -15 173 7 0 22 2 33 4
11 2 47 7 80 10 33 4 62 9 64 11 8 7 61 4 62 -3z m5084 -293 c50 -13 92 -24
94 -26 7 -6 -55 -232 -68 -246 -7 -8 -218 57 -234 71 -4 4 1 32 12 63 10 30
25 81 32 112 14 66 6 65 164 26z m-4957 -215 c8 -22 28 -70 43 -107 34 -78 34
-74 12 -81 -10 -2 -62 -25 -116 -51 l-98 -46 -23 53 c-25 57 -77 197 -73 197
1 0 52 18 112 39 61 22 114 39 119 37 5 -1 15 -20 24 -41z m4804 -279 l86 -38
-24 -51 c-25 -55 -77 -157 -89 -176 -5 -8 -19 -5 -48 12 -23 13 -71 39 -107
57 -36 19 -67 35 -69 37 -2 1 20 52 49 112 l53 110 31 -13 c17 -7 70 -30 118
-50z m-4586 -163 c15 -27 43 -69 62 -95 18 -26 32 -52 30 -57 -1 -5 -46 -41
-98 -80 -74 -55 -97 -68 -106 -58 -6 6 -41 56 -77 109 l-67 97 33 25 c33 25
177 106 189 106 3 0 19 -21 34 -47z m4319 -276 c50 -33 92 -61 94 -63 12 -10
-141 -215 -156 -210 -7 3 -53 37 -103 77 l-91 71 24 32 c13 17 45 61 71 99 30
41 52 65 59 60 7 -3 53 -33 102 -66z m-3976 -152 l85 -85 -30 -32 c-16 -18
-33 -38 -39 -43 -5 -6 -31 -33 -56 -61 l-47 -51 -68 67 c-38 37 -80 80 -94 95
l-25 27 90 84 c50 46 92 84 95 84 3 0 43 -38 89 -85z m3657 -249 l89 -85 -45
-45 c-25 -25 -69 -67 -99 -93 -46 -40 -55 -45 -65 -31 -6 8 -36 43 -66 78 -94
108 -94 91 -4 180 44 42 84 78 90 79 6 0 51 -37 100 -83z m-3292 -60 c44 -31
86 -60 94 -65 11 -6 1 -29 -53 -112 -37 -57 -69 -105 -70 -107 -3 -4 -86 47
-95 57 -3 3 -23 19 -45 34 -87 60 -87 44 -4 156 41 55 79 99 84 97 6 -2 46
-29 89 -60z m2904 -273 l71 -102 -32 -23 c-47 -36 -187 -121 -191 -117 -7 9
-95 157 -109 185 l-16 32 62 38 c34 21 80 51 101 66 22 15 40 27 41 26 1 -2
34 -49 73 -105z m-2370 -39 c2 -1 -14 -40 -35 -86 -22 -46 -45 -97 -53 -115
l-14 -31 -119 59 -118 60 43 77 c23 42 51 93 62 112 l19 35 106 -54 c58 -29
108 -55 109 -57z m459 -178 c3 -2 -2 -22 -48 -178 l-19 -66 -118 40 c-64 22
-120 43 -125 47 -6 7 20 82 70 202 l16 36 110 -39 c61 -21 112 -40 114 -42z
m1467 -35 c25 -57 46 -107 46 -111 0 -11 -239 -104 -247 -96 -4 3 -73 230 -73
238 0 4 24 14 53 23 28 8 77 26 107 39 30 13 58 20 62 17 3 -3 27 -53 52 -110z
m-1114 -36 c30 -3 67 -7 83 -9 15 -1 30 -6 33 -9 7 -6 6 -109 -1 -172 -2 -16
-3 -43 -4 -58 -1 -16 -4 -26 -8 -24 -5 3 -35 8 -67 11 -66 7 -114 14 -164 22
-29 5 -33 8 -28 28 3 13 8 41 12 62 3 21 7 44 9 49 1 6 5 28 9 50 12 65 14 67
43 61 16 -3 53 -8 83 -11z m604 -2 c3 -10 13 -58 21 -108 8 -49 18 -101 21
-115 3 -14 3 -22 -1 -18 -4 3 -21 2 -38 -3 -65 -18 -215 -30 -224 -16 -3 4 -7
62 -10 128 -5 111 -4 119 13 120 34 1 98 9 149 18 28 5 53 9 57 10 4 0 9 -7
12 -16z"/>
</g>
</svg>
